HIERARCHY
ROOT Hips
{
    OFFSET 0.0 0.0 0.0
    CHANNELS 6 Xposition Yposition Zposition Zrotation Xrotation Yrotation
    JOINT LeftUpLeg
    {
        OFFSET 11.178784234960261 0.0 0.0
        CHANNELS 3 Zrotation Xrotation Yrotation
        JOINT LeftLeg
        {
            OFFSET 0.0 0.0 -65.4749401916972
            CHANNELS 3 Zrotation Xrotation Yrotation
            JOINT LeftFoot
            {
                OFFSET 0.0 0.0 -50.50175332095749
                CHANNELS 3 Zrotation Xrotation Yrotation
                JOINT LeftToeBase
                {
                    OFFSET 0.0 -11.214708437022145 0.0
                    CHANNELS 3 Zrotation Xrotation Yrotation
                    End Site
                    {
                        OFFSET 0 0 0
                    }
                }
            }
        }
    }
    JOINT RightUpLeg
    {
        OFFSET -11.178784234960261 0.0 0.0
        CHANNELS 3 Zrotation Xrotation Yrotation
        JOINT RightLeg
        {
            OFFSET 0.0 0.0 -65.4749401916972
            CHANNELS 3 Zrotation Xrotation Yrotation
            JOINT RightFoot
            {
                OFFSET 0.0 0.0 -50.50175332095749
                CHANNELS 3 Zrotation Xrotation Yrotation
                JOINT RightToeBase
                {
                    OFFSET 0.0 -11.214708437022145 0.0
                    CHANNELS 3 Zrotation Xrotation Yrotation
                    End Site
                    {
                        OFFSET 0 0 0
                    }
                }
            }
        }
    }
    JOINT Spine
    {
        OFFSET 0.0 0.0 12.283524063931589
        CHANNELS 3 Zrotation Xrotation Yrotation
        JOINT Spine1
        {
            OFFSET 0.0 0.0 11.529863504998941
            CHANNELS 3 Zrotation Xrotation Yrotation
            JOINT Spine2
            {
                OFFSET 0.0 0.0 11.529863504998943
                CHANNELS 3 Zrotation Xrotation Yrotation
                JOINT Spine3
                {
                    OFFSET 0.0 0.0 11.52986350499894
                    CHANNELS 3 Zrotation Xrotation Yrotation
                    JOINT Spine4
                    {
                        OFFSET 0.0 0.0 11.529863504998946
                        CHANNELS 3 Zrotation Xrotation Yrotation
                        JOINT RightShoulder
                        {
                            OFFSET -22.4214784059914 0.0 0.0
                            CHANNELS 3 Zrotation Xrotation Yrotation
                            JOINT RightArm
                            {
                                OFFSET -37.52707421658444 0.0 0.0
                                CHANNELS 3 Zrotation Xrotation Yrotation
                                JOINT RightForeArm
                                {
                                    OFFSET -33.80784766288853 0.0 0.0
                                    CHANNELS 3 Zrotation Xrotation Yrotation
                                    JOINT RightHand
                                    {
                                        OFFSET -11.366812759448955 0.0 0.0
                                        CHANNELS 3 Zrotation Xrotation Yrotation
                                        End Site
                                        {
                                            OFFSET 0 0 0
                                        }
                                    }
                                }
                            }
                        }
                        JOINT LeftShoulder
                        {
                            OFFSET 22.4214784059914 0.0 0.0
                            CHANNELS 3 Zrotation Xrotation Yrotation
                            JOINT LeftArm
                            {
                                OFFSET 37.52707421658444 0.0 0.0
                                CHANNELS 3 Zrotation Xrotation Yrotation
                                JOINT LeftForeArm
                                {
                                    OFFSET 33.80784766288853 0.0 0.0
                                    CHANNELS 3 Zrotation Xrotation Yrotation
                                    JOINT LeftHand
                                    {
                                        OFFSET 11.366812759448955 0.0 0.0
                                        CHANNELS 3 Zrotation Xrotation Yrotation
                                        End Site
                                        {
                                            OFFSET 0 0 0
                                        }
                                    }
                                }
                            }
                        }
                        JOINT Neck
                        {
                            OFFSET 0.0 0.0 11.529863502846583
                            CHANNELS 3 Zrotation Xrotation Yrotation
                            JOINT Head
                            {
                                OFFSET 0.0 0.0 24.739243296033287
                                CHANNELS 3 Zrotation Xrotation Yrotation
                                End Site
                                {
                                    OFFSET 0 0 0
                                }
                            }
                        }
                    }
                }
            }
        }
    }
}
MOTION
Frames: 6
Frame Time: 0.03333333333333333
60.79348754882813 13.293075209856033 409.68421840667725 7.888358534740286 -60.53567977233403 10.889686790677338 3.624699735326443 -26.97698208990035 -3.241515847846327 23.38625043234317 -18.299582632110017 14.126643434743205 -84.09084389506845 -6.3611093629270335e-15 58.51920916074467 0.0 0.0 0.0 -3.217120698396281 -28.061738092130966 -2.5882610437501405 -13.716736040077818 -14.019853319567629 -15.094667529253618 106.20902437773506 6.3611093629270335e-15 -40.33859787137966 0.0 0.0 0.0 1.0271950416844682 -31.49111486478366 -0.31165339558791294 3.9756933518293955e-16 0.0 0.0 3.9756933518293955e-16 0.0 0.0 3.9756933518293955e-16 0.0 0.0 3.9756933518293955e-16 0.0 0.0 146.80310083974243 -4.431398121809736 -150.331016735495 109.80292720053062 -1.1437549180460636e-14 -5.851329842236009e-15 180.0 -22.700609748397333 -180.0 3.1805546814635168e-15 7.172597734331508e-32 2.5842006786891076e-15 -156.78802963266466 -46.84373887531425 160.12274971163052 -122.29662877179149 -5.859282967881077e-15 2.547185412576347e-15 -1.206602463990857e-14 34.95982581236353 1.7137896055824263e-14 0.0 0.0 0.0 0.21041395902900292 -1.4484948189751615e-14 8.217374212066363e-16 0.0 -2.4848083448933725e-17 0.0
60.79348754882813 13.293075209856033 409.68421840667725 7.888358534740286 -60.53567977233403 10.889686790677338 3.624699735326443 -26.97698208990035 -3.241515847846327 23.38625043234317 -18.299582632110017 14.126643434743205 -84.09084389506845 -6.3611093629270335e-15 58.51920916074467 0.0 0.0 0.0 -3.217120698396281 -28.061738092130966 -2.5882610437501405 -13.716736040077818 -14.019853319567629 -15.094667529253618 106.20902437773506 6.3611093629270335e-15 -40.33859787137966 0.0 0.0 0.0 1.0271950416844682 -31.49111486478366 -0.31165339558791294 3.9756933518293955e-16 0.0 0.0 3.9756933518293955e-16 0.0 0.0 3.9756933518293955e-16 0.0 0.0 3.9756933518293955e-16 0.0 0.0 146.80310083974243 -4.431398121809736 -150.331016735495 109.80292720053062 -1.1437549180460636e-14 -5.851329842236009e-15 180.0 -22.700609748397333 -180.0 3.1805546814635168e-15 7.172597734331508e-32 2.5842006786891076e-15 -156.78802963266466 -46.84373887531425 160.12274971163052 -122.29662877179149 -5.859282967881077e-15 2.547185412576347e-15 -1.206602463990857e-14 34.95982581236353 1.7137896055824263e-14 0.0 0.0 0.0 0.21041395902900292 -1.4484948189751615e-14 8.217374212066363e-16 0.0 -2.4848083448933725e-17 0.0
60.79348754882813 13.293075209856033 409.68421840667725 7.888358534740286 -60.53567977233403 10.889686790677338 3.624699735326443 -26.97698208990035 -3.241515847846327 23.38625043234317 -18.299582632110017 14.126643434743205 -84.09084389506845 -6.3611093629270335e-15 58.51920916074467 0.0 0.0 0.0 -3.217120698396281 -28.061738092130966 -2.5882610437501405 -13.716736040077818 -14.019853319567629 -15.094667529253618 106.20902437773506 6.3611093629270335e-15 -40.33859787137966 0.0 0.0 0.0 1.0271950416844682 -31.49111486478366 -0.31165339558791294 3.9756933518293955e-16 0.0 0.0 3.9756933518293955e-16 0.0 0.0 3.9756933518293955e-16 0.0 0.0 3.9756933518293955e-16 0.0 0.0 146.80310083974243 -4.431398121809736 -150.331016735495 109.80292720053062 -1.1437549180460636e-14 -5.851329842236009e-15 180.0 -22.700609748397333 -180.0 3.1805546814635168e-15 7.172597734331508e-32 2.5842006786891076e-15 -156.78802963266466 -46.84373887531425 160.12274971163052 -122.29662877179149 -5.859282967881077e-15 2.547185412576347e-15 -1.206602463990857e-14 34.95982581236353 1.7137896055824263e-14 0.0 0.0 0.0 0.21041395902900292 -1.4484948189751615e-14 8.217374212066363e-16 0.0 -2.4848083448933725e-17 0.0
60.84969220161438 13.500671231746674 409.73844623565674 7.674240833334389 -60.642180859638614 10.353027878918818 3.0743176765954883 -26.70658877407484 -3.088315999548627 23.4071207173562 -18.609050368841928 13.752208788188836 -84.2667926380107 3.1805546814635168e-15 57.76745441661175 0.0 0.0 0.0 -3.4369875193913266 -27.97692239067074 -2.49709553957972 -13.745108243212027 -13.935505850317996 -15.114530318508937 107.00285826065411 -1.2722218725854067e-14 -40.956329275403874 0.0 6.3611093629270335e-15 0.0 0.6862610568059442 -31.413483050928082 0.023466563937300247 -3.975693351829396e-16 0.0 0.0 -3.975693351829396e-16 0.0 0.0 -3.975693351829396e-16 0.0 0.0 -3.975693351829396e-16 0.0 0.0 147.98585119524336 -4.19684655657834 -150.9154242112489 110.79899946809473 -1.480504629648443e-14 -1.2145492872809207e-14 180.0 31.41926741660697 180.0 0.0 0.0 0.0 -154.0723838369229 -60.35217897474294 159.7319328509595 -122.33035184995266 -1.1612298437235577e-14 -7.902824681298813e-15 3.747653720457789e-15 47.19642678025311 -8.578769598571309e-15 0.0 0.0 0.0 -0.3570941446735656 8.127761670040136e-15 -7.69814439604881e-16 0.0 0.0 0.0
60.86656029224396 13.548780065774917 409.74993152618407 7.649821906499269 -60.661707317948114 10.30293878622858 2.907670917646315 -26.647691151202984 -3.1022472122425033 23.41679149627593 -18.68883019559512 13.654464513624577 -84.35448046962179 -2.5444437451708134e-14 57.55303359983216 0.0 -6.361109362927033e-15 0.0 -3.4987670526738244 -27.95442348837904 -2.5216264117111 -13.765525067080478 -13.923510917676804 -15.110452050609512 107.43978169652576 -3.1805546814635168e-15 -40.91995297929649 0.0 0.0 0.0 0.5766671641338406 -31.396253351020707 0.03855957031405494 3.975693351829396e-16 0.0 0.0 3.975693351829396e-16 0.0 0.0 3.975693351829396e-16 0.0 0.0 3.975693351829396e-16 0.0 0.0 148.05833470749172 -4.191643910510957 -150.92148783195347 110.83412488132029 8.17071324188874e-15 -6.446161934755484e-16 180.0 33.60745421862509 180.0 3.1805546814635164e-15 -8.827812596100317e-32 -3.1805546814635164e-15 -151.81045059833534 -64.72387374536562 160.41675578640232 -121.94275956588591 9.260117155336381e-15 1.6686031320044518e-14 0.0 46.54596826517547 0.0 0.0 0.0 0.0 -0.39675905897763203 1.9087343298248233e-14 -1.1266273320757526e-15 0.0 0.0 0.0
60.883216381073 13.593203508853911 409.76011505126957 7.628188214263071 -60.684446976535796 10.272732124465795 2.765868714351171 -26.590448188388397 -3.121505498411062 23.439180973186925 -18.759829948288957 13.570279359146621 -84.47674221023183 0.0 57.32366161436254 0.0 0.0 0.0 -3.5588720548833663 -27.926436613993786 -2.562768526434098 -13.78669011655959 -13.918014367496127 -15.09858179184699 107.82746852354266 0.0 -40.74866621179616 0.0 0.0 0.0 0.4781687118204904 -31.37405156431935 0.03938790485737403 0.0 0.0 0.0 0.0 0.0 0.0 0.0 0.0 0.0 0.0 0.0 0.0 148.00225068014606 -4.20316178670097 -150.85732628969023 110.76845189392694 1.17528688579977e-14 1.6566525919330437e-14 -180.0 35.30346014575385 -179.99999999999997 3.1805546814635168e-15 0.0 0.0 -149.59743434626222 -66.57282330289104 161.50232241390285 -121.37947655065042 -2.4814757443958274e-15 -4.420082647545833e-15 4.0952267976588745e-15 43.92098972430895 -1.6512953813138181e-15 0.0 0.0 0.0 -0.32956058512837516 -2.4726027567381695e-14 7.240307298667539e-16 -3.975693351829396e-16 0.0 0.0
